<svg width="292" height="158" viewBox="0 0 292 158" fill="none" xmlns="http://www.w3.org/2000/svg">
<g filter="url(#filter0_d_16_1144)">
<path d="M60.9449 87.1813C51.0211 62.6229 31.3293 72.6459 22.7239 80.7272C20.7708 82.0675 17.8483 83.1599 21.7833 76.8073C26.7021 68.8666 36.9242 59.5793 46.6609 61.1435C54.6211 62.4223 61.8357 70.4279 64.1632 76.1408C64.3303 79.1408 63.1856 82.1056 67.5234 77.1203C72.2225 71.7196 80.7035 78.3583 79.0244 84.1186C87.8028 73.6573 98.8096 74.6089 103.383 75.5949C113.673 77.8133 116.969 90.8048 119.387 101.092C121.805 111.38 118.995 110.179 117.288 108.293C107.075 76.1503 87.3111 84.2773 78.7057 92.3586C67.5396 104.936 62.2126 94.1478 60.9449 87.1813Z" fill="#173C33"/>
<path d="M167.506 33.6567C157.583 9.09819 137.891 19.1212 129.285 27.2025C127.332 28.5428 124.41 29.6353 128.345 23.2827C133.264 15.3419 143.486 6.05469 153.222 7.61886C161.183 8.89764 168.397 16.9032 170.725 22.6162C170.892 25.6162 169.747 28.581 174.085 23.5957C178.784 18.195 187.265 24.8337 185.586 30.5939C194.364 20.1326 205.371 21.0842 209.945 22.0702C220.235 24.2886 223.531 37.2801 225.949 47.5678C228.366 57.8554 225.557 56.6545 223.85 54.7681C213.637 22.6256 193.873 30.7527 185.267 38.834C174.101 51.4117 168.774 40.6232 167.506 33.6567Z" fill="#173C33"/>
<path d="M213.506 103.657C203.583 79.0982 183.891 89.1212 175.285 97.2025C173.332 98.5428 170.41 99.6353 174.345 93.2827C179.264 85.3419 189.486 76.0547 199.222 77.6189C207.183 78.8976 214.397 86.9032 216.725 92.6162C216.892 95.6162 215.747 98.581 220.085 93.5957C224.784 88.195 233.265 94.8337 231.586 100.594C240.364 90.1326 251.371 91.0842 255.945 92.0702C266.235 94.2886 269.531 107.28 271.949 117.568C274.366 127.855 271.557 126.654 269.85 124.768C259.637 92.6256 239.873 100.753 231.267 108.834C220.101 121.412 214.774 110.623 213.506 103.657Z" fill="#173C33"/>
</g>
<defs>
<filter id="filter0_d_16_1144" x="0.833984" y="0.444946" width="291.055" height="156.59" filterUnits="userSpaceOnUse" color-interpolation-filters="sRGB">
<feFlood flood-opacity="0" result="BackgroundImageFix"/>
<feColorMatrix in="SourceAlpha" type="matrix" values="0 0 0 0 0 0 0 0 0 0 0 0 0 0 0 0 0 0 127 0" result="hardAlpha"/>
<feOffset dy="12"/>
<feGaussianBlur stdDeviation="9.5"/>
<feComposite in2="hardAlpha" operator="out"/>
<feColorMatrix type="matrix" values="0 0 0 0 0.0509804 0 0 0 0 0.196078 0 0 0 0 0.160784 0 0 0 0.7 0"/>
<feBlend mode="normal" in2="BackgroundImageFix" result="effect1_dropShadow_16_1144"/>
<feBlend mode="normal" in="SourceGraphic" in2="effect1_dropShadow_16_1144" result="shape"/>
</filter>
</defs>
</svg>
