<svg width="133" height="119" viewBox="0 0 133 119" fill="none" xmlns="http://www.w3.org/2000/svg">
<g filter="url(#filter0_d_16_1188)">
<path d="M36.4983 62.7625C26.7829 40.0771 42.1707 16.235 51.079 7.14963C44.0344 18.4269 54.6265 44.5659 60.8031 56.2257C55.6021 47.0951 42.4328 56.7792 36.4983 62.7625Z" fill="#173C33"/>
<path d="M53.2976 12.3302C57.5948 22.3641 64.0908 44.062 66.8016 53.6567C67.8624 48.2978 82.5375 48.9611 89.7425 49.9626C83.4368 35.239 47.9261 -0.212209 53.2976 12.3302Z" fill="#173C33"/>
<path d="M51.4088 87.0305C42.9018 90.6738 26.8357 77.1186 19.866 69.8856C36.8151 72.6941 86.9879 59.1015 109.956 51.9542C111.203 48.8387 113.603 44.1968 113.228 50.5529C112.852 56.909 104.421 69.1674 100.252 74.5021C87.5155 77.1602 59.9158 83.3872 51.4088 87.0305Z" fill="#173C33"/>
</g>
<defs>
<filter id="filter0_d_16_1188" x="0.866211" y="0.149658" width="131.4" height="118.491" filterUnits="userSpaceOnUse" color-interpolation-filters="sRGB">
<feFlood flood-opacity="0" result="BackgroundImageFix"/>
<feColorMatrix in="SourceAlpha" type="matrix" values="0 0 0 0 0 0 0 0 0 0 0 0 0 0 0 0 0 0 127 0" result="hardAlpha"/>
<feOffset dy="12"/>
<feGaussianBlur stdDeviation="9.5"/>
<feComposite in2="hardAlpha" operator="out"/>
<feColorMatrix type="matrix" values="0 0 0 0 0.0509804 0 0 0 0 0.196078 0 0 0 0 0.160784 0 0 0 0.7 0"/>
<feBlend mode="normal" in2="BackgroundImageFix" result="effect1_dropShadow_16_1188"/>
<feBlend mode="normal" in="SourceGraphic" in2="effect1_dropShadow_16_1188" result="shape"/>
</filter>
</defs>
</svg>
