<svg width="249" height="57" viewBox="0 0 249 57" fill="none" xmlns="http://www.w3.org/2000/svg">
<path d="M48 29C48 13.536 60.536 1 76 1H190C205.464 1 218 13.536 218 29C218 44.464 205.464 57 190 57H76C60.536 57 48 44.464 48 29Z" fill="#CF7B0C"/>
<g clip-path="url(#clip0_16_1228)">
<path d="M229.493 29.1311V28.9053C229.493 21.7358 243.477 7.84836 248.985 4.23537C245.931 2.22189 242.308 1.03638 238.421 1.03638C229.829 1.03638 222.494 6.75694 219.791 14.6603C219.791 14.6603 214.136 1.03638 204.2 1.03638H180.178C195.243 1.03638 207.444 13.5689 207.444 29.0182C207.444 44.4675 195.243 57 180.192 57H204.214C214.15 57 219.805 43.376 219.805 43.376C222.509 51.2795 229.844 57 238.436 57C242.322 57 245.946 55.8145 249 53.801C243.491 50.188 229.508 36.3006 229.508 29.1311H229.493Z" fill="#CF7B0C"/>
<path d="M50.8768 29.0182C50.8768 13.5689 63.0777 1.03638 78.128 1.03638H54.1206C39.0557 1.03638 16.2026 13.5689 16.2026 29.0182C16.2026 44.4675 39.0557 57 54.1206 57H78.1426C63.0923 57 50.8914 44.4675 50.8914 29.0182H50.8768ZM41.9927 27.4563C40.1954 27.4563 38.7342 25.5746 38.7342 23.26C38.7342 20.9454 40.1954 19.0637 41.9927 19.0637C43.79 19.0637 45.2512 20.9454 45.2512 23.26C45.2512 25.5746 43.79 27.4563 41.9927 27.4563Z" fill="#CF7B0C"/>
</g>
<defs>
<clipPath id="clip0_16_1228">
<rect width="248.797" height="55.9636" fill="white" transform="translate(0.202637 1.03638)"/>
</clipPath>
</defs>
</svg>
