<svg width="278" height="54" viewBox="0 0 278 54" fill="none" xmlns="http://www.w3.org/2000/svg">
<g clip-path="url(#clip0_441_819)">
<path d="M259.34 27.1089V26.8911C259.34 19.9731 272.716 6.57297 277.986 3.08675C275.065 1.14391 271.598 0 267.88 0C259.661 0 252.644 5.51984 250.058 13.1459C250.058 13.1459 244.649 0 235.144 0H212.165C226.576 0 238.247 12.0928 238.247 27C238.247 41.9072 226.576 54 212.179 54H235.158C244.663 54 250.072 40.8541 250.072 40.8541C252.658 48.4802 259.675 54 267.894 54C271.612 54 275.079 52.8561 278 50.9133C272.73 47.427 259.354 34.0269 259.354 27.1089H259.34Z" fill="#CF7B0C"/>
<path d="M33.1693 27C33.1693 12.0928 44.8408 0 59.2379 0H36.2724C21.8613 0 0 12.0928 0 27C0 41.9072 21.8613 54 36.2724 54H59.2519C44.8548 54 33.1833 41.9072 33.1833 27H33.1693ZM24.6708 25.4929C22.9515 25.4929 21.5538 23.6772 21.5538 21.4438C21.5538 19.2105 22.9515 17.3948 24.6708 17.3948C26.3901 17.3948 27.7879 19.2105 27.7879 21.4438C27.7879 23.6772 26.3901 25.4929 24.6708 25.4929Z" fill="#CF7B0C"/>
<path d="M61.3223 37.332C58.1901 37.332 55.7552 36.502 54.0176 34.8418C52.291 33.1706 51.4277 30.7965 51.4277 27.7197C51.4277 24.5433 52.2301 22.1084 53.835 20.415C55.4398 18.7106 57.7308 17.8584 60.708 17.8584C63.5413 17.8584 65.7272 18.5999 67.2656 20.083C68.8151 21.555 69.5898 23.68 69.5898 26.458V29.3467H57.9854C58.0296 30.3981 58.4115 31.2227 59.1309 31.8203C59.8613 32.418 60.8519 32.7168 62.1025 32.7168C63.2425 32.7168 64.2884 32.6117 65.2402 32.4014C66.2031 32.18 67.2435 31.8092 68.3613 31.2891V35.9541C67.3431 36.4743 66.2917 36.834 65.207 37.0332C64.1224 37.2324 62.8275 37.332 61.3223 37.332ZM60.9404 22.2744C60.1768 22.2744 59.5348 22.5179 59.0146 23.0049C58.5055 23.4808 58.2067 24.2334 58.1182 25.2627H63.6963C63.6742 24.3551 63.4141 23.6302 62.916 23.0879C62.429 22.5456 61.7705 22.2744 60.9404 22.2744ZM82.3398 37.332C79.2077 37.332 76.7728 36.502 75.0352 34.8418C73.3086 33.1706 72.4453 30.7965 72.4453 27.7197C72.4453 24.5433 73.2477 22.1084 74.8525 20.415C76.4574 18.7106 78.7484 17.8584 81.7256 17.8584C84.5589 17.8584 86.7448 18.5999 88.2832 20.083C89.8327 21.555 90.6074 23.68 90.6074 26.458V29.3467H79.0029C79.0472 30.3981 79.429 31.2227 80.1484 31.8203C80.8789 32.418 81.8695 32.7168 83.1201 32.7168C84.2601 32.7168 85.306 32.6117 86.2578 32.4014C87.2207 32.18 88.2611 31.8092 89.3789 31.2891V35.9541C88.3607 36.4743 87.3092 36.834 86.2246 37.0332C85.14 37.2324 83.8451 37.332 82.3398 37.332ZM81.958 22.2744C81.1943 22.2744 80.5524 22.5179 80.0322 23.0049C79.5231 23.4808 79.2243 24.2334 79.1357 25.2627H84.7139C84.6917 24.3551 84.4316 23.6302 83.9336 23.0879C83.4466 22.5456 82.7881 22.2744 81.958 22.2744ZM92.749 30.4756V25.2959H102.129V30.4756H92.749ZM119.627 31.2227C119.627 33.237 118.941 34.7588 117.568 35.7881C116.196 36.8174 114.226 37.332 111.658 37.332C110.264 37.332 109.052 37.2546 108.022 37.0996C106.993 36.9557 105.942 36.6846 104.868 36.2861V31.0898C105.875 31.5326 106.977 31.8978 108.172 32.1855C109.378 32.4733 110.452 32.6172 111.393 32.6172C112.798 32.6172 113.501 32.2962 113.501 31.6543C113.501 31.3223 113.302 31.029 112.903 30.7744C112.516 30.5088 111.376 29.9997 109.483 29.2471C107.757 28.5387 106.55 27.7363 105.864 26.8398C105.178 25.9323 104.835 24.7868 104.835 23.4033C104.835 21.6546 105.51 20.2933 106.86 19.3193C108.211 18.3454 110.12 17.8584 112.588 17.8584C113.827 17.8584 114.99 17.9967 116.074 18.2734C117.17 18.5391 118.304 18.932 119.478 19.4521L117.718 23.6357C116.854 23.2484 115.941 22.9219 114.979 22.6562C114.016 22.3796 113.23 22.2412 112.621 22.2412C111.559 22.2412 111.027 22.5013 111.027 23.0215C111.027 23.3424 111.21 23.6191 111.575 23.8516C111.951 24.0729 113.025 24.5322 114.796 25.2295C116.113 25.7718 117.092 26.3031 117.734 26.8232C118.387 27.3434 118.863 27.9577 119.162 28.666C119.472 29.3633 119.627 30.2155 119.627 31.2227ZM135.498 37L134.253 34.5098H134.12C133.246 35.5944 132.355 36.3359 131.447 36.7344C130.54 37.1328 129.367 37.332 127.928 37.332C126.157 37.332 124.762 36.8008 123.744 35.7383C122.726 34.6758 122.217 33.1816 122.217 31.2559C122.217 29.2526 122.914 27.764 124.309 26.79C125.703 25.805 127.723 25.2516 130.368 25.1299L133.506 25.0303V24.7646C133.506 23.2152 132.742 22.4404 131.215 22.4404C129.842 22.4404 128.099 22.9053 125.985 23.835L124.109 19.5518C126.301 18.4229 129.068 17.8584 132.41 17.8584C134.823 17.8584 136.688 18.4561 138.005 19.6514C139.333 20.8467 139.997 22.5179 139.997 24.665V37H135.498ZM130.684 32.75C131.469 32.75 132.139 32.501 132.692 32.0029C133.257 31.5049 133.539 30.8574 133.539 30.0605V28.5996L132.045 28.666C129.909 28.7435 128.841 29.5293 128.841 31.0234C128.841 32.1745 129.455 32.75 130.684 32.75ZM156.25 37V26.7402C156.25 24.2168 155.503 22.9551 154.009 22.9551C152.946 22.9551 152.16 23.4033 151.651 24.2998C151.153 25.1852 150.904 26.6628 150.904 28.7324V37H144.413V11.168H150.904V14.8369C150.904 16.4971 150.816 18.3896 150.639 20.5146H150.938C151.557 19.5407 152.293 18.8545 153.146 18.4561C153.998 18.0576 154.988 17.8584 156.117 17.8584C158.22 17.8584 159.853 18.4671 161.015 19.6846C162.188 20.891 162.774 22.5843 162.774 24.7646V37H156.25ZM165.663 30.4756V25.2959H175.043V30.4756H165.663ZM189.503 17.8584C191.55 17.8584 193.172 18.7161 194.367 20.4316C195.574 22.1471 196.177 24.5212 196.177 27.5537C196.177 30.6084 195.568 33.0046 194.351 34.7422C193.144 36.4688 191.462 37.332 189.304 37.332C188.606 37.332 187.987 37.2546 187.444 37.0996C186.902 36.9557 186.415 36.751 185.983 36.4854C185.563 36.2197 185.07 35.777 184.506 35.1572H184.107L183.078 37H178.015V11.168H184.506V17.0117C184.506 17.709 184.428 18.9098 184.273 20.6143H184.506C185.137 19.6403 185.862 18.9375 186.681 18.5059C187.511 18.0742 188.451 17.8584 189.503 17.8584ZM187.129 22.9551C186.221 22.9551 185.557 23.2705 185.137 23.9014C184.716 24.5322 184.506 25.5228 184.506 26.873V27.7861C184.506 29.3245 184.716 30.4313 185.137 31.1064C185.557 31.7705 186.243 32.1025 187.195 32.1025C187.959 32.1025 188.546 31.7152 188.955 30.9404C189.365 30.1546 189.569 29.0036 189.569 27.4873C189.569 24.4658 188.756 22.9551 187.129 22.9551ZM217.858 27.5537C217.858 30.6305 217.028 33.0322 215.368 34.7588C213.719 36.4743 211.406 37.332 208.429 37.332C205.573 37.332 203.299 36.4521 201.605 34.6924C199.923 32.9326 199.082 30.5531 199.082 27.5537C199.082 24.488 199.907 22.1084 201.556 20.415C203.216 18.7106 205.54 17.8584 208.528 17.8584C210.377 17.8584 212.009 18.2513 213.426 19.0371C214.842 19.8229 215.933 20.9518 216.696 22.4238C217.471 23.8848 217.858 25.5947 217.858 27.5537ZM205.673 27.5537C205.673 29.1696 205.889 30.4036 206.32 31.2559C206.752 32.097 207.477 32.5176 208.495 32.5176C209.502 32.5176 210.211 32.097 210.62 31.2559C211.041 30.4036 211.251 29.1696 211.251 27.5537C211.251 25.9489 211.041 24.737 210.62 23.918C210.2 23.099 209.48 22.6895 208.462 22.6895C207.466 22.6895 206.752 23.099 206.32 23.918C205.889 24.7259 205.673 25.9378 205.673 27.5537Z" fill="#CF7B0C"/>
</g>
<defs>
<clipPath id="clip0_441_819">
<rect width="278" height="54" fill="white"/>
</clipPath>
</defs>
</svg>
