<svg width="514" height="620" viewBox="0 0 514 620" fill="none" xmlns="http://www.w3.org/2000/svg">
<g clip-path="url(#clip0_436_782)">
<path d="M256.681 0C234.823 0 217.082 17.7225 217.082 39.6058C217.082 61.4892 234.801 79.2117 256.681 79.2117C278.561 79.2117 296.28 61.4892 296.28 39.6058C296.28 17.7225 278.561 0 256.681 0ZM256.923 59.3758C246.137 59.3758 237.377 50.6136 237.377 39.826C237.377 29.0384 246.137 20.2763 256.923 20.2763C267.709 20.2763 276.47 29.0384 276.47 39.826C276.47 50.6136 267.709 59.3758 256.923 59.3758Z" fill="#82C885"/>
<path d="M294.035 90.1754H219.349C218.06 90.1754 217.015 91.2202 217.015 92.5091V226.495C217.015 227.784 218.06 228.829 219.349 228.829H294.035C295.324 228.829 296.368 227.784 296.368 226.495V92.5091C296.368 91.2202 295.324 90.1754 294.035 90.1754Z" fill="#82C885"/>
<path d="M296.368 451.56H217.015V242.589C217.015 241.004 218.028 239.705 219.305 239.705H294.101C295.356 239.705 296.39 241.004 296.39 242.589V451.56H296.368Z" fill="#468C72"/>
<path d="M124.896 528.328C138.191 535.857 155.778 544.795 174.62 547.723C200.308 551.686 229.606 546.424 255.008 529.362C269.14 519.874 279.925 506.862 287.079 495.04C295.29 481.457 296.39 464.615 296.346 451.273C293.023 451.648 217.346 451.626 216.993 451.604C216.993 470.163 189.699 482.183 175.523 483.372C158.222 484.825 140.92 479.321 125.754 470.845C117.808 466.398 49.0866 423.138 74.3342 411.712C80.0794 409.114 88.686 406.164 97.2486 404.446C101.409 403.61 102.421 396.477 98.1952 396.213C38.0806 392.448 17.1693 347.845 4.27036 337.475C2.48739 336.044 -0.154038 337.409 -0.0219664 339.677V339.743C1.73899 369.574 9.77333 399.603 22.4962 426.572C43.6717 471.44 77.7681 498.453 118.776 524.409C120.823 525.708 122.826 527.029 124.874 528.35L124.896 528.328Z" fill="#468C72"/>
<path d="M414 395.882C410.28 396.169 411.16 402.333 414.836 402.971C423.993 404.6 433.458 407.815 439.622 410.589C464.869 422.015 395.048 460.3 387.123 464.747C371.979 473.223 355.756 474.808 338.455 473.355C332.952 472.892 327.471 471.351 322.342 469.392C320.493 468.688 307.044 460.035 306.956 461.775C306.164 476.173 303.522 490.395 295.092 502.988C286.617 515.669 276.69 527.535 264.231 536.319C252.917 544.289 240.238 550.211 227.031 554.35C215.188 558.048 201.189 559.656 187.497 559.722C186.155 559.722 185.384 560.91 186.375 562.209C190.205 567.229 197.117 570.641 202.113 574.45C208.211 579.073 214.22 583.851 220.097 588.76C230.399 597.346 240.348 606.35 249.923 615.751C253.775 619.538 257.121 621.871 262.118 618.107C267.114 614.342 271.209 608.596 275.677 604.237C285.032 595.144 294.849 586.58 304.953 578.369C325.292 561.857 346.82 546.865 368.413 532.092C392.56 515.559 412.789 505.013 437.795 487.973C459.3 473.333 478.143 452.308 489.743 428.95C490.315 427.805 490.865 426.66 491.416 425.493C504.139 398.524 512.173 368.495 513.934 338.598C514.066 336.308 511.447 334.966 509.664 336.397C496.611 346.898 456.263 392.58 413.956 395.904L414 395.882Z" fill="#783608"/>
<path d="M203.478 134.382H149.351C149.175 134.382 148.999 134.449 148.845 134.493C148.162 134.449 147.48 134.382 146.775 134.382C130.311 134.382 116.971 147.724 116.971 164.191C116.971 180.659 130.311 194 146.775 194C147.634 194 148.492 193.934 149.351 193.868H203.478C204.953 193.868 206.142 192.679 206.142 191.204V137.024C206.142 135.549 204.953 134.36 203.478 134.36V134.382Z" fill="#783608"/>
<path d="M309.73 134.382H363.857C364.033 134.382 364.209 134.449 364.363 134.493C365.046 134.449 365.728 134.382 366.432 134.382C382.897 134.382 396.236 147.724 396.236 164.191C396.236 180.659 382.897 194 366.432 194C365.574 194 364.715 193.934 363.857 193.868H309.73C308.255 193.868 307.066 192.679 307.066 191.204V137.024C307.066 135.549 308.255 134.36 309.73 134.36V134.382Z" fill="#783608"/>
<path d="M423.267 182.883C433.588 182.883 441.955 174.514 441.955 164.192C441.955 153.869 433.588 145.5 423.267 145.5C412.946 145.5 404.579 153.869 404.579 164.192C404.579 174.514 412.946 182.883 423.267 182.883Z" fill="#783608"/>
<path d="M90.1167 182.883C100.438 182.883 108.805 174.514 108.805 164.192C108.805 153.869 100.438 145.5 90.1167 145.5C79.7955 145.5 71.4286 153.869 71.4286 164.192C71.4286 174.514 79.7955 182.883 90.1167 182.883Z" fill="#783608"/>
</g>
<defs>
<clipPath id="clip0_436_782">
<rect width="514" height="620" fill="white"/>
</clipPath>
</defs>
</svg>
