<svg width="463" height="187" viewBox="0 0 463 187" fill="none" xmlns="http://www.w3.org/2000/svg">
<g clip-path="url(#clip0_436_673)">
<path d="M44.532 92.6635V24.2554H62.7735V92.6635H44.532Z" fill="#82C885"/>
<path d="M121.21 71.8919C121.21 76.1373 120.154 79.9021 118.042 83.1923C115.93 86.4825 112.88 89.0423 108.899 90.8653C104.918 92.6884 100.244 93.5999 94.8883 93.5999C90.4139 93.5999 86.6644 93.2815 83.6335 92.6384C80.6026 91.9954 77.4467 90.8841 74.1721 89.292V72.8221C77.6342 74.6327 81.2338 76.0437 84.9708 77.0551C88.7079 78.0665 92.1387 78.5785 95.2633 78.5785C97.9567 78.5785 99.9315 78.104 101.188 77.1488C102.444 76.1998 103.069 74.9761 103.069 73.4777C103.069 72.5412 102.819 71.7233 102.312 71.0241C101.806 70.3248 100.994 69.6131 99.8752 68.8951C98.7566 68.1771 95.7757 66.7099 90.9388 64.4998C86.5581 62.4707 83.271 60.5103 81.0838 58.6061C78.8965 56.7019 77.2717 54.523 76.2156 52.0568C75.1595 49.5907 74.6283 46.6751 74.6283 43.31C74.6283 37.0104 76.878 32.0969 81.3837 28.5695C85.8832 25.042 92.0699 23.2814 99.944 23.2814C106.893 23.2814 113.986 24.9171 121.216 28.1949L115.655 42.4671C109.374 39.5327 103.956 38.0718 99.3941 38.0718C97.0381 38.0718 95.3196 38.4901 94.2509 39.333C93.1761 40.1758 92.6449 41.2184 92.6449 42.4671C92.6449 43.8094 93.326 45.0081 94.6884 46.0695C96.0507 47.1309 99.7503 49.0663 105.781 51.8695C111.568 54.523 115.592 57.3699 117.842 60.4104C120.092 63.4509 121.216 67.2843 121.216 71.8981L121.21 71.8919Z" fill="#82C885"/>
<path d="M172.798 92.6634L169.492 79.8459H147.67L144.27 92.6634H124.329L146.245 23.9744H170.454L192.645 92.6634H172.798ZM165.724 64.6808L162.83 53.4491C162.155 50.9518 161.337 47.724 160.374 43.7657C159.412 39.8074 158.774 36.9667 158.468 35.2498C158.193 36.8419 157.65 39.4578 156.837 43.1101C156.025 46.7625 154.225 53.9486 151.438 64.6808H165.724Z" fill="#82C885"/>
<path d="M199.907 24.2554H223.335C232.459 24.2554 239.24 25.6351 243.664 28.3947C248.089 31.1542 250.301 35.4559 250.301 41.2872C250.301 45.1268 249.338 48.3983 247.407 51.1141C245.476 53.83 242.933 55.5781 239.783 56.3523V56.8205C243.945 57.9443 246.964 59.8173 248.832 62.4333C250.701 65.0555 251.632 68.4519 251.632 72.6349C251.632 78.8407 249.345 83.7293 244.764 87.3067C240.183 90.8779 233.946 92.6635 226.041 92.6635H199.901V24.2554H199.907ZM218.055 50.5023H223.523C226.122 50.5023 228.141 49.9591 229.566 48.8665C230.991 47.774 231.703 46.1507 231.703 44.003C231.703 40.1634 228.853 38.2467 223.16 38.2467H218.061V50.5085L218.055 50.5023ZM218.055 64.0253V78.3912H224.441C230.109 78.3912 232.94 75.9563 232.94 71.0928C232.94 68.814 232.184 67.0658 230.666 65.8546C229.147 64.6434 226.954 64.0316 224.073 64.0316H218.055V64.0253Z" fill="#82C885"/>
<path d="M303.182 92.6635H263.305V24.2554H303.182V39.0895H281.453V49.853H301.576V64.6871H281.453V77.5983H303.182V92.6635Z" fill="#82C885"/>
<path d="M356.15 92.6634L352.844 79.8459H331.022L327.622 92.6634H307.681L329.597 23.9744H353.807L375.998 92.6634H356.15ZM349.076 64.6808L346.183 53.4491C345.508 50.9518 344.689 47.724 343.727 43.7657C342.764 39.8074 342.127 36.9667 341.821 35.2498C341.546 36.8419 341.002 39.4578 340.19 43.1101C339.377 46.7625 337.578 53.9486 334.79 64.6808H349.076Z" fill="#82C885"/>
<path d="M440.359 24.2554V65.4301C440.359 74.383 437.872 81.3131 432.891 86.2266C427.91 91.1401 420.742 93.5937 411.369 93.5937C401.995 93.5937 395.177 91.2088 390.259 86.4326C385.34 81.6627 382.885 74.7951 382.885 65.8421V24.2554H401.126V64.4062C401.126 69.2448 402.013 72.7535 403.788 74.9324C405.563 77.1176 408.181 78.2102 411.644 78.2102C415.349 78.2102 418.036 77.1238 419.705 74.9574C421.374 72.791 422.211 69.2448 422.211 64.3125V24.2554H440.359Z" fill="#82C885"/>
<path d="M116.973 169.325L113.667 156.508H91.8451L88.4455 169.325H68.5042L90.4202 100.636H114.63L136.821 169.325H116.973ZM109.899 141.343L107.006 130.111C106.331 127.614 105.512 124.386 104.55 120.427C103.587 116.469 102.95 113.628 102.644 111.912C102.369 113.504 101.825 116.12 101.013 119.772C100.2 123.424 98.4005 130.61 95.6134 141.343H109.899Z" fill="#468C72"/>
<path d="M173.985 115.096C169.667 115.096 166.298 116.9 163.88 120.502C161.462 124.105 160.249 129.074 160.249 135.405C160.249 148.572 165.167 155.153 174.997 155.153C177.966 155.153 180.847 154.735 183.634 153.892C186.421 153.049 189.221 152.037 192.039 150.851V166.478C186.434 169.007 180.097 170.268 173.023 170.268C162.886 170.268 155.112 167.271 149.707 161.284C144.301 155.296 141.595 146.637 141.595 135.318C141.595 128.238 142.908 122.013 145.526 116.65C148.144 111.287 151.913 107.16 156.825 104.276C161.743 101.392 167.523 99.9493 174.166 99.9493C181.428 99.9493 188.365 101.554 194.976 104.769L189.414 119.322C186.933 118.136 184.453 117.137 181.972 116.326C179.491 115.514 176.828 115.108 173.979 115.108L173.985 115.096Z" fill="#468C72"/>
<path d="M262.518 169.325H242.027L228.747 143.172L223.373 146.45V169.331H205.131V100.923H223.373V130.635C224.291 128.794 226.141 125.878 228.934 121.888L243.039 100.93H262.887L241.708 131.578L262.518 169.338V169.325Z" fill="#468C72"/>
<path d="M313.693 148.554C313.693 152.799 312.637 156.564 310.525 159.854C308.412 163.144 305.363 165.704 301.382 167.527C297.401 169.35 292.727 170.262 287.371 170.262C282.897 170.262 279.147 169.943 276.116 169.3C273.085 168.657 269.93 167.546 266.655 165.954V149.484C270.117 151.294 273.717 152.705 277.454 153.717C281.191 154.728 284.622 155.24 287.746 155.24C290.44 155.24 292.414 154.766 293.67 153.811C294.927 152.862 295.552 151.638 295.552 150.139C295.552 149.203 295.302 148.385 294.795 147.686C294.289 146.987 293.477 146.275 292.358 145.557C291.24 144.839 288.259 143.372 283.422 141.162C279.041 139.132 275.754 137.172 273.567 135.268C271.379 133.364 269.755 131.185 268.699 128.719C267.642 126.252 267.111 123.337 267.111 119.972C267.111 113.672 269.361 108.759 273.867 105.231C278.366 101.704 284.553 99.9431 292.427 99.9431C299.376 99.9431 306.469 101.579 313.699 104.857L308.137 119.129C301.857 116.194 296.439 114.734 291.877 114.734C289.521 114.734 287.802 115.152 286.734 115.995C285.659 116.838 285.128 117.88 285.128 119.129C285.128 120.471 285.809 121.67 287.171 122.731C288.534 123.793 292.233 125.728 298.264 128.531C304.05 131.185 308.075 134.032 310.325 137.072C312.574 140.113 313.699 143.946 313.699 148.56L313.693 148.554Z" fill="#468C72"/>
<path d="M386.922 135.031C386.922 146.543 384.147 155.29 378.604 161.278C373.061 167.265 364.943 170.262 354.257 170.262C343.571 170.262 335.64 167.252 330.022 161.234C324.404 155.215 321.592 146.45 321.592 134.937C321.592 123.424 324.385 114.858 329.979 108.852C335.565 102.846 343.689 99.8433 354.351 99.8433C365.012 99.8433 373.142 102.821 378.654 108.777C384.166 114.734 386.922 123.487 386.922 135.024V135.031ZM340.702 135.031C340.702 148.254 345.22 154.872 354.257 154.872C358.85 154.872 362.256 153.267 364.481 150.052C366.699 146.837 367.811 141.836 367.811 135.031C367.811 128.225 366.687 123.156 364.437 119.897C362.187 116.638 358.825 115.008 354.351 115.008C345.252 115.008 340.708 121.682 340.708 135.037L340.702 135.031Z" fill="#468C72"/>
<path d="M463 169.325H439.203L414.668 121.133H414.256C414.837 128.712 415.131 134.5 415.131 138.489V169.325H399.051V100.917H422.755L447.195 148.454H447.47C447.039 141.561 446.827 136.023 446.827 131.84V100.911H463V169.319V169.325Z" fill="#468C72"/>
<path d="M53.6496 0C48.6127 0 44.532 4.07689 44.532 9.10901C44.532 14.1411 48.6127 18.218 53.6496 18.218C58.6865 18.218 62.7673 14.1411 62.7673 9.10901C62.7673 4.07689 58.6865 0 53.6496 0ZM53.7059 13.6604C51.2187 13.6604 49.2064 11.65 49.2064 9.1652C49.2064 6.68036 51.2187 4.67001 53.7059 4.67001C56.1931 4.67001 58.2053 6.68036 58.2053 9.1652C58.2053 11.65 56.1931 13.6604 53.7059 13.6604Z" fill="#82C885"/>
<path d="M44.5633 99.1565V161.028C44.5633 165.386 43.9196 168.464 42.6385 170.262C41.3574 172.06 39.2202 172.959 36.233 172.959C34.9519 172.959 33.7583 172.846 32.6647 172.615C31.6961 172.416 30.7837 172.235 29.9026 172.066C29.8963 172.066 29.8901 172.066 29.8776 172.066C26.7967 171.498 19.8913 167.945 16.7542 163.943C16.023 163.007 15.3856 161.946 15.2606 160.759C14.8919 157.101 20.21 156.795 22.8347 156.264C23.8283 156.064 24.0658 154.372 23.0596 154.31C8.74888 153.417 3.77449 142.81 0.70611 140.35C-0.487495 139.395 0.149928 148.217 0.243666 148.891C0.893587 153.648 2.29967 158.293 4.35567 162.632C9.22383 172.928 18.304 182.842 29.5464 186.039C32.5085 186.682 35.6331 187 38.9265 187C46.8568 187 52.8123 184.678 56.7743 180.026C60.7426 175.375 62.7236 168.526 62.7236 159.473V99.1565H44.5508H44.5633Z" fill="#468C72"/>
</g>
<defs>
<clipPath id="clip0_436_673">
<rect width="463" height="187" fill="white"/>
</clipPath>
</defs>
</svg>
