<svg width="88" height="106" viewBox="0 0 88 106" fill="none" xmlns="http://www.w3.org/2000/svg">
<g clip-path="url(#clip0_436_763)">
<path d="M43.9453 0C40.2031 0 37.1656 3.02997 37.1656 6.77132C37.1656 10.5127 40.1994 13.5426 43.9453 13.5426C47.6913 13.5426 50.725 10.5127 50.725 6.77132C50.725 3.02997 47.6913 0 43.9453 0ZM43.9868 10.1513C42.1402 10.1513 40.6403 8.65329 40.6403 6.80896C40.6403 4.96463 42.1402 3.46659 43.9868 3.46659C45.8334 3.46659 47.3333 4.96463 47.3333 6.80896C47.3333 8.65329 45.8334 10.1513 43.9868 10.1513Z" fill="#82C885"/>
<path d="M50.3407 15.4171H37.5539C37.3333 15.4171 37.1544 15.5957 37.1544 15.8161V38.7234C37.1544 38.9438 37.3333 39.1224 37.5539 39.1224H50.3407C50.5613 39.1224 50.7401 38.9438 50.7401 38.7234V15.8161C50.7401 15.5957 50.5613 15.4171 50.3407 15.4171Z" fill="#82C885"/>
<path d="M50.7401 77.2021H37.1544V41.4748C37.1544 41.2038 37.3278 40.9818 37.5464 40.9818H50.352C50.5668 40.9818 50.7439 41.2038 50.7439 41.4748V77.2021H50.7401Z" fill="#468C72"/>
<path d="M21.3828 90.3269C23.6591 91.6142 26.6702 93.1424 29.8961 93.643C34.294 94.3205 39.31 93.4209 43.6589 90.5038C46.0783 88.8816 47.9249 86.6571 49.1497 84.6359C50.5554 82.3135 50.7438 79.4341 50.7363 77.1532C50.1672 77.2171 37.2109 77.2134 37.1506 77.2096C37.1506 80.3826 32.4775 82.4377 30.0506 82.641C27.0885 82.8894 24.1264 81.9484 21.5298 80.4993C20.1694 79.739 8.40387 72.3428 12.7264 70.3894C13.71 69.9452 15.1835 69.4409 16.6495 69.1473C17.3618 69.0042 17.5351 67.7847 16.8116 67.7396C6.51958 67.0959 2.93943 59.4702 0.73105 57.6974C0.425795 57.4527 -0.026434 57.6861 -0.00382252 58.0738V58.0851C0.297663 63.1852 1.67319 68.3192 3.85143 72.93C7.4768 80.6009 13.3143 85.2193 20.3352 89.657C20.6857 89.879 21.0286 90.1049 21.3791 90.3307L21.3828 90.3269Z" fill="#468C72"/>
<path d="M70.8794 67.6831C70.2425 67.732 70.3932 68.7859 71.0226 68.8951C72.5903 69.1736 74.2108 69.7232 75.266 70.1974C79.5886 72.1509 67.6346 78.6964 66.2779 79.4567C63.6852 80.9058 60.9077 81.1768 57.9456 80.9284C57.0035 80.8494 56.0651 80.5859 55.187 80.2509C54.8705 80.1305 52.5679 78.6512 52.5528 78.9486C52.4171 81.4102 51.9649 83.8417 50.5215 85.9947C49.0706 88.1627 47.371 90.1915 45.238 91.6933C43.3009 93.0558 41.1302 94.0683 38.8691 94.7759C36.8416 95.4083 34.4448 95.683 32.1007 95.6943C31.8709 95.6943 31.739 95.8976 31.9085 96.1197C32.5643 96.9778 33.7476 97.5612 34.6031 98.2124C35.647 99.0028 36.6758 99.8196 37.682 100.659C39.4457 102.127 41.1491 103.666 42.7884 105.274C43.4479 105.921 44.0207 106.32 44.8762 105.676C45.7317 105.033 46.4326 104.05 47.1976 103.305C48.7993 101.751 50.4801 100.286 52.2099 98.8824C55.692 96.0594 59.3777 93.4962 63.0747 90.9706C67.2088 88.1439 70.6721 86.341 74.9532 83.4277C78.6351 80.9246 81.861 77.3301 83.847 73.3365C83.945 73.1408 84.0392 72.9451 84.1335 72.7456C86.3117 68.1348 87.6872 63.0008 87.9887 57.8894C88.0113 57.4979 87.5629 57.2683 87.2576 57.513C85.0228 59.3084 78.115 67.1185 70.8718 67.6869L70.8794 67.6831Z" fill="#783608"/>
<path d="M34.8367 22.9751H25.5698C25.5397 22.9751 25.5095 22.9864 25.4831 22.9939C25.3663 22.9864 25.2495 22.9751 25.1289 22.9751C22.31 22.9751 20.0262 25.256 20.0262 28.0714C20.0262 30.8869 22.31 33.1678 25.1289 33.1678C25.2759 33.1678 25.4228 33.1565 25.5698 33.1452H34.8367C35.0892 33.1452 35.2927 32.942 35.2927 32.6898V23.4268C35.2927 23.1746 35.0892 22.9713 34.8367 22.9713V22.9751Z" fill="#783608"/>
<path d="M53.0277 22.9751H62.2946C62.3247 22.9751 62.3549 22.9864 62.3813 22.9939C62.4981 22.9864 62.6149 22.9751 62.7355 22.9751C65.5544 22.9751 67.8382 25.256 67.8382 28.0714C67.8382 30.8869 65.5544 33.1678 62.7355 33.1678C62.5885 33.1678 62.4416 33.1565 62.2946 33.1452H53.0277C52.7752 33.1452 52.5717 32.942 52.5717 32.6898V23.4268C52.5717 23.1746 52.7752 22.9713 53.0277 22.9713V22.9751Z" fill="#783608"/>
<path d="M72.4659 31.267C74.2329 31.267 75.6654 29.8363 75.6654 28.0714C75.6654 26.3066 74.2329 24.8759 72.4659 24.8759C70.6988 24.8759 69.2664 26.3066 69.2664 28.0714C69.2664 29.8363 70.6988 31.267 72.4659 31.267Z" fill="#783608"/>
<path d="M15.4285 31.267C17.1956 31.267 18.628 29.8363 18.628 28.0714C18.628 26.3066 17.1956 24.8759 15.4285 24.8759C13.6615 24.8759 12.229 26.3066 12.229 28.0714C12.229 29.8363 13.6615 31.267 15.4285 31.267Z" fill="#783608"/>
</g>
<defs>
<clipPath id="clip0_436_763">
<rect width="88" height="106" fill="white"/>
</clipPath>
</defs>
</svg>
