<svg width="103" height="80" viewBox="0 0 103 80" fill="none" xmlns="http://www.w3.org/2000/svg">
<g clip-path="url(#clip0_18_1646)">
<path d="M56.8562 23.0764C56.8562 10.3429 67.1663 -3.1326e-06 79.9155 -2.01802e-06C92.6648 -9.03447e-07 102.321 10.3429 102.95 23.0764C104.685 58.1063 60.0247 89.1853 65.054 77.4835C82.7068 36.5398 56.8562 49.9025 56.8562 23.0513L56.8562 23.0764Z" fill="#783608"/>
<path d="M0.000432222 23.0764C0.000433335 10.3429 10.3105 -1.83935e-05 23.0598 -1.72789e-05C35.809 -1.61643e-05 45.4653 10.3429 46.1191 23.0764C47.829 58.1063 3.16888 89.1853 8.19818 77.4835C25.851 36.5398 0.000429877 49.9025 0.000432224 23.0513L0.000432222 23.0764Z" fill="#783608"/>
</g>
<defs>
<clipPath id="clip0_18_1646">
<rect width="103" height="80" fill="white" transform="translate(103 80) rotate(-180)"/>
</clipPath>
</defs>
</svg>
