<svg width="437" height="603" viewBox="0 0 437 603" fill="none" xmlns="http://www.w3.org/2000/svg">
<path d="M134.179 371.202C133.891 372.495 134.754 373.717 135.975 373.933L214.887 390.319C215.175 388.81 215.534 387.3 215.821 385.719L136.91 369.333C135.616 369.118 134.394 369.908 134.179 371.13V371.202Z" fill="#CF7B0C"/>
<path d="M433.296 210.719C434.374 210.719 435.524 210.719 436.602 210.791V3.30596C436.602 1.50924 435.093 0 433.296 0C431.499 0 429.99 1.50924 429.99 3.30596V210.791C431.068 210.791 432.218 210.719 433.296 210.719Z" fill="#CF7B0C"/>
<path d="M180.677 261.53C179.958 262.608 180.245 264.045 181.324 264.764L248.018 310.113C248.88 308.82 249.742 307.526 250.677 306.304L183.983 260.955C182.905 260.236 181.467 260.524 180.749 261.602L180.677 261.53Z" fill="#CF7B0C"/>
<path d="M393.985 214.241L378.893 135.042C378.677 133.748 377.455 132.957 376.162 133.173C374.868 133.389 374.078 134.61 374.293 135.904L389.386 215.103C390.895 214.816 392.476 214.528 393.985 214.313V214.241Z" fill="#CF7B0C"/>
<path d="M133.172 490.503C133.387 491.653 134.394 492.372 135.472 492.372C135.615 492.372 135.759 492.372 135.903 492.372L215.102 477.279C214.815 475.77 214.527 474.189 214.312 472.68L135.112 487.772C133.819 487.988 133.028 489.21 133.244 490.503H133.172Z" fill="#CF7B0C"/>
<path d="M177.874 600.967C178.306 601.685 179.096 602.045 179.815 602.045C180.246 602.045 180.677 601.901 181.108 601.685L248.521 557.486C247.659 556.192 246.868 554.899 246.006 553.533L178.593 597.804C177.515 598.523 177.228 599.96 177.946 601.038L177.874 600.967Z" fill="#CF7B0C"/>
<path d="M348.491 227.465C350.359 226.674 352.156 225.955 354.025 225.309L293.511 72.6595C292.936 71.1503 291.139 70.3597 289.63 71.0066C288.121 71.5815 287.33 73.3782 287.977 74.8875L348.491 227.537V227.465Z" fill="#CF7B0C"/>
<path d="M309.251 248.522C310.545 247.66 311.838 246.869 313.204 246.007L268.933 178.594C268.214 177.516 266.777 177.229 265.699 177.947C264.62 178.666 264.333 180.103 265.052 181.181L309.251 248.594V248.522Z" fill="#CF7B0C"/>
<path d="M77.0444 282.588L227.753 347.701C228.544 345.832 229.334 344.036 230.125 342.239L79.3442 277.054C77.835 276.407 76.1101 277.054 75.4633 278.635C74.8165 280.145 75.4633 281.869 77.0444 282.516V282.588Z" fill="#CF7B0C"/>
<path d="M210.719 433.296C210.719 432.218 210.719 431.068 210.791 429.99H3.30596C1.50924 429.99 0 431.499 0 433.296C0 435.093 1.50924 436.602 3.30596 436.602H210.791C210.791 435.524 210.719 434.374 210.719 433.296Z" fill="#CF7B0C"/>
<path d="M273.603 278.276C275.113 276.695 276.694 275.114 278.275 273.604L131.591 126.92C130.297 125.627 128.213 125.627 126.919 126.92C125.626 128.214 125.626 130.298 126.919 131.592L273.603 278.276Z" fill="#CF7B0C"/>
<path d="M225.309 512.567L72.6595 573.081C71.1503 573.656 70.3597 575.452 71.0066 576.962C71.4378 578.112 72.5877 578.83 73.8094 578.83C74.1688 578.83 74.5281 578.83 74.8875 578.615L227.537 518.101C226.746 516.233 226.027 514.436 225.38 512.567H225.309Z" fill="#CF7B0C"/>
</svg>
