<svg width="24" height="92" viewBox="0 0 24 92" fill="none" xmlns="http://www.w3.org/2000/svg">
<path d="M13.5 2C13.5 1.17157 12.8284 0.5 12 0.5C11.1716 0.5 10.5 1.17157 10.5 2H13.5ZM10.9393 91.0607C11.5251 91.6464 12.4749 91.6464 13.0607 91.0607L22.6066 81.5147C23.1924 80.9289 23.1924 79.9792 22.6066 79.3934C22.0208 78.8076 21.0711 78.8076 20.4853 79.3934L12 87.8787L3.51472 79.3934C2.92893 78.8076 1.97919 78.8076 1.3934 79.3934C0.807611 79.9792 0.807611 80.9289 1.3934 81.5147L10.9393 91.0607ZM10.5 2V90H13.5V2H10.5Z" fill="#CF7B0C"/>
</svg>
