<svg width="405" height="158" viewBox="0 0 405 158" fill="none" xmlns="http://www.w3.org/2000/svg">
<path d="M35.0199 4.80916C46.4999 3.70916 50.0699 16.1892 62.1299 17.3992C71.7999 18.3692 72.6599 10.6592 90.8799 5.99916C98.4599 4.05916 106.65 1.96916 115.81 4.68916C127.38 8.12916 124.73 14.8792 133.19 15.4792C143.98 16.2492 149.29 5.11915 162.06 3.35915C174.31 1.66915 178.62 11.5992 192.76 12.7892C208.04 14.0792 211.14 -0.420851 224.15 1.04915C236.54 2.44915 237.7 14.5391 250.13 15.3291C260.98 16.0191 262.68 6.96915 275.85 6.42915C287.71 5.93915 289.48 13.1491 301.57 12.3591C312.8 11.6291 313.36 5.25916 324.02 4.93916C335.7 4.58916 337.69 12.1692 349.48 11.9292C360.83 11.6992 361.87 4.61916 371.3 4.93916C388.66 5.51916 399.84 30.0292 400.41 31.3092C404.4 40.3292 404.71 48.3092 404.7 51.6792C404.62 70.3592 393.89 123.579 389.11 129.329C382.58 137.179 371.2 150.859 355.38 151.479C343.81 151.929 339.76 144.999 326.02 145.499C316.04 145.859 314.58 152.049 303.06 153.069C293.9 153.879 286.24 151.859 283.53 150.499C272.46 144.939 268.88 139.209 261.01 139.689C254.84 140.059 250.82 144.229 241.78 149.709C237.85 152.089 233.27 153.359 228.04 154.119C214.24 156.119 210.26 148.209 197.65 148.549C183.6 148.929 182.26 158.909 171.43 157.719C157.63 156.199 152.95 141.349 139.89 139.779C127.04 138.229 126.73 151.979 110.71 151.699C99.0999 151.499 97.8299 143.329 84.7399 143.339C72.3699 143.339 69.4399 150.629 60.1799 148.419C50.2199 146.039 50.4399 136.839 40.9499 134.779C30.0099 132.399 24.3599 143.469 15.7299 141.209C3.23993 137.939 0.709927 70.6792 0.459927 68.0392C-1.89007 43.0292 10.0399 21.0792 23.8899 10.1892C29.8199 5.51916 33.4899 4.94915 35.0099 4.79915L35.0199 4.80916Z" fill="white"/>
</svg>
