<svg width="413" height="124" viewBox="0 0 413 124" fill="none" xmlns="http://www.w3.org/2000/svg">
<path d="M89.4199 9.21995C97.9499 5.72995 106.66 2.16995 116.55 2.97995C129.81 4.06995 131.75 11.93 142.05 10.58C151.8 9.29995 152.57 1.92995 162.12 1.08995C171.89 0.22995 173.33 7.73995 184.36 9.22995C199.61 11.2899 204.57 -2.03005 219.35 0.27995C229.77 1.89995 227.86 8.60995 240.51 11.4C249.35 13.35 262.49 12.77 273.6 8.95995C276 8.13995 278.25 7.17995 281.74 7.05995C289.92 6.77995 292.2 11.53 298.83 12.49C308.88 13.94 311.29 4.12995 322.16 4.61995C331.18 5.02995 331.69 11.87 340.88 12.49C351.14 13.17 352.99 4.78995 364.48 4.34995C373.53 4.00995 374.29 9.12995 386.72 10.32C398.12 11.41 400.87 7.41995 405.46 10.17C413.7 15.09 413.43 33.04 408.89 45.2299C403.11 60.7199 390.13 108.03 387.81 109.23C375.55 115.57 363.38 114.27 356.89 113.57C343.64 112.15 341.75 107.81 330.58 108.42C319.04 109.04 318.08 113.83 308.61 113.85C293.9 113.87 292.37 102.35 279.31 101.37C262.21 100.09 256.3 119.2 238.35 117.37C228 116.31 227.68 109.72 217.73 109.77C203.15 109.85 198.88 124.05 187.08 123.06C176.25 122.16 176.8 109.94 164.57 105.97C147.58 100.46 136.96 120.91 117.1 116.01C105.98 113.27 104.67 105.71 94.5899 106.24C83.4199 106.83 80.3699 116.34 71.2599 115.19C61.6999 113.98 61.7299 103.1 51.7299 100.81C40.6699 98.2899 34.5199 110.19 21.8899 108.68C11.7399 107.46 5.61988 99.0599 4.96988 98.1499C-4.81012 84.5099 0.899884 20.61 15.1099 10.85C26.2199 3.21995 42.0699 4.35995 52.2699 8.67995C60.1299 12.01 62.7599 16.4199 70.4399 16.5499C76.9699 16.6599 78.8999 13.53 89.4299 9.22995L89.4199 9.21995Z" fill="white"/>
</svg>
