<svg width="409" height="142" viewBox="0 0 409 142" fill="none" xmlns="http://www.w3.org/2000/svg">
<path d="M91.8999 9.40956C108.43 3.48956 112.4 5.57955 114.4 5.80955C125.1 6.99955 125.62 14.4296 135.23 15.7296C147.65 17.4096 150.98 5.55955 165.32 5.47955C177.9 5.40955 178.86 14.5196 191.44 14.4096C206.03 14.2796 211.24 1.96955 221.53 5.14955C228.43 7.27955 227.39 13.2296 236.41 17.0496C243.99 20.2696 251.62 18.9895 257.24 18.0395C268.24 16.1895 268.88 12.6296 277.08 12.4196C286.7 12.1796 287.09 17.0496 296.59 17.3796C308.92 17.8096 311.93 9.72955 323.04 11.4295C330.61 12.5895 329.84 16.4396 337.26 17.7096C349.62 19.8296 353.46 9.44956 366.68 10.7696C373.87 11.4796 373.93 14.6696 384.86 16.3896C394.54 17.9196 396.22 15.6895 400.04 17.6495C409.92 22.6995 409.89 43.1796 407.73 54.8896C406.67 60.6296 404 115.47 391.13 126.08C378.19 136.75 363.12 136.72 358.74 136.71C343.16 136.68 342.01 129.78 327.33 130.76C313.02 131.72 309.25 138.61 299.56 135.72C290.07 132.89 287.19 128.49 277.74 126.13C265.93 123.18 256.8 128.87 253.94 130.76C246.84 135.45 243.76 138.38 239.24 139.02C230.53 140.27 226.35 134.25 216.25 131.75C201.12 128 193.61 143.65 176.91 140.99C164.99 139.09 169.77 128.29 156.74 126.46C144.64 124.76 128.61 131.69 122.36 134.39C118.51 136.05 115.18 137.79 110.46 137.37C102.88 136.69 101.74 131.35 94.9199 129.44C83.9599 126.36 78.4799 137.78 68.1399 135.06C59.2199 132.71 60.4199 123.45 51.2799 120.84C42.0499 118.2 37.3799 126.66 25.1599 125.8C17.4399 125.26 10.1799 121.23 6.27992 116.94C-11.2801 97.6196 11.5899 1.97956 32.8999 0.76956C38.8699 0.42956 47.5799 4.16955 53.5899 8.44955C60.8699 13.6296 63.3699 17.8796 68.5199 19.7096C74.0499 21.6696 73.6099 15.9696 91.9299 9.40956H91.8999Z" fill="white"/>
</svg>
