<svg width="1512" height="1099" viewBox="0 0 1512 1099" fill="none" xmlns="http://www.w3.org/2000/svg">
<g filter="url(#filter0_d_18_1676)">
<path d="M1942.04 646.467C1928.66 596.943 1900.99 568.041 1866.49 535.074C1891.05 509.633 1910.41 483.444 1920.92 444.503C1936.71 386.035 1855.46 378.533 1743.71 388.919C1733.95 372.392 1724.26 354.147 1714.73 333.817C1694.75 291.182 1686.43 236.377 1631.93 204.686C1557.84 161.589 1434.21 198.551 1345.47 199.501C1268.59 200.32 1184.33 184.994 1142.77 143.61C1120.21 121.14 1111.06 92.0414 1077.64 76.0375C1046.12 60.9482 1002.41 62.3501 963.984 67.8221C915.939 74.6608 869.748 86.8006 828.058 103.548C792.988 117.637 757.911 135.641 716.503 135.762C661.162 135.917 620.045 104.844 573.218 85.9715C499.129 56.1044 397.243 57.5063 325.227 89.3833C272.965 112.512 231.62 150.982 168.472 155.529C86.8421 161.403 28.155 108.397 -44.2693 83.5998C-105.046 62.7873 -174.894 64.159 -237.689 80.2734C-501.246 147.912 -450.045 312.482 -452.204 461.32C-466.994 484.138 -475.257 532.923 -473.38 626.293C-470.371 776.01 -524.369 942.576 -258.809 1010.73C-196.014 1026.84 -126.166 1028.21 -65.3893 1007.4C7.03488 982.603 65.7219 929.597 147.351 935.471C210.5 940.018 251.853 978.483 304.107 1001.62C376.123 1033.49 478.001 1034.9 552.09 1005.03C598.917 986.151 640.026 955.077 695.375 955.238C736.783 955.354 771.86 973.363 806.93 987.452C848.612 1004.2 894.803 1016.34 942.856 1023.18C981.286 1028.65 1025 1030.05 1056.51 1014.96C1089.93 998.959 1099.08 969.855 1121.65 947.39C1163.22 906.006 1247.47 890.68 1324.35 891.499C1413.09 892.444 1536.72 929.406 1610.81 886.314C1665.3 854.623 1673.62 799.818 1693.61 757.183C1703.97 735.094 1714.51 715.462 1725.12 697.835C1856.58 713.518 1959.64 711.694 1942.04 646.497V646.467Z" fill="#1A4037"/>
</g>
<defs>
<filter id="filter0_d_18_1676" x="-544" y="0" width="2556" height="1099" filterUnits="userSpaceOnUse" color-interpolation-filters="sRGB">
<feFlood flood-opacity="0" result="BackgroundImageFix"/>
<feColorMatrix in="SourceAlpha" type="matrix" values="0 0 0 0 0 0 0 0 0 0 0 0 0 0 0 0 0 0 127 0" result="hardAlpha"/>
<feOffset dy="4"/>
<feGaussianBlur stdDeviation="34"/>
<feComposite in2="hardAlpha" operator="out"/>
<feColorMatrix type="matrix" values="0 0 0 0 0.0509804 0 0 0 0 0.196078 0 0 0 0 0.160784 0 0 0 1 0"/>
<feBlend mode="normal" in2="BackgroundImageFix" result="effect1_dropShadow_18_1676"/>
<feBlend mode="normal" in="SourceGraphic" in2="effect1_dropShadow_18_1676" result="shape"/>
</filter>
</defs>
</svg>
