<svg width="1512" height="1190" viewBox="0 0 1512 1190" fill="none" xmlns="http://www.w3.org/2000/svg">
<g filter="url(#filter0_d_18_1675)">
<path d="M1999.09 274.105C1885.44 157.899 1660.18 110.824 1443.42 135.557C1389.29 141.736 1327.3 150.061 1283.66 130.162C1247.23 113.545 1238.91 83.6983 1217.44 59.6553C1177.07 14.4432 1079.95 -10.0726 996.679 3.93044C898.286 20.4782 826.325 82.4467 724.029 81.6634C623.617 80.8893 543.45 18.2023 443.565 24.3162C400.839 26.9305 363.233 42.1665 332.105 59.6367C300.977 77.1069 274.215 97.2749 241.124 113.438C208.034 129.601 166.226 141.801 123.5 139.187C51.3031 134.765 56.1481 98.5635 22.2562 71.6142C-11.9341 44.4239 -72.941 35.6494 -126.896 31.4035C-255.31 21.294 -356.837 37.4525 -436.36 99.0548L-436.384 99.0733C-731.909 328.04 -821.052 486.232 -813.568 595.002C-821.052 703.768 -731.909 861.959 -436.384 1090.93L-436.36 1090.95C-356.837 1152.55 -255.31 1168.71 -126.896 1158.6C-72.941 1154.35 -11.9341 1145.58 22.2562 1118.39C56.1481 1091.44 51.3031 1055.24 123.5 1050.82C166.226 1048.2 208.034 1060.4 241.124 1076.57C274.215 1092.73 300.985 1112.9 332.105 1130.37C363.225 1147.84 400.839 1163.07 443.565 1165.69C543.45 1171.8 623.617 1109.11 724.029 1108.34C826.325 1107.55 898.294 1169.53 996.679 1186.07C1079.95 1200.08 1177.07 1175.57 1217.44 1130.35C1238.91 1106.31 1247.23 1076.46 1283.66 1059.84C1327.3 1039.94 1389.29 1048.27 1443.42 1054.45C1660.18 1079.18 1885.44 1032.1 1999.09 915.9C2099.08 813.665 2116.16 706.642 2108.33 595.007C2116.16 483.367 2099.08 376.349 1999.09 274.109V274.105Z" fill="#1F443B"/>
</g>
<defs>
<filter id="filter0_d_18_1675" x="-881.997" y="-64.002" width="3060" height="1326.01" filterUnits="userSpaceOnUse" color-interpolation-filters="sRGB">
<feFlood flood-opacity="0" result="BackgroundImageFix"/>
<feColorMatrix in="SourceAlpha" type="matrix" values="0 0 0 0 0 0 0 0 0 0 0 0 0 0 0 0 0 0 127 0" result="hardAlpha"/>
<feOffset dy="4"/>
<feGaussianBlur stdDeviation="34"/>
<feComposite in2="hardAlpha" operator="out"/>
<feColorMatrix type="matrix" values="0 0 0 0 0.0509804 0 0 0 0 0.196078 0 0 0 0 0.160784 0 0 0 1 0"/>
<feBlend mode="normal" in2="BackgroundImageFix" result="effect1_dropShadow_18_1675"/>
<feBlend mode="normal" in="SourceGraphic" in2="effect1_dropShadow_18_1675" result="shape"/>
</filter>
</defs>
</svg>
