<svg width="1512" height="893" viewBox="0 0 1512 893" fill="none" xmlns="http://www.w3.org/2000/svg">
<g filter="url(#filter0_d_18_1679)">
<path d="M1760.33 490.546C1851.79 372.593 1929.75 253.831 1769.48 349.124C1769.48 349.124 1774.74 409.805 1696.18 305.466L1684.89 305.337C1679.69 296.701 1674.28 288.13 1668.62 279.651C1649.22 250.6 1626.97 221.559 1597.71 196.548C1558.36 162.917 1519.46 159.228 1456.26 160.086C1342.61 161.628 1219.29 159.53 1129.91 111.293C1105.61 98.1802 1084.39 81.8691 1056.57 72.6348C1011.85 57.7963 958.092 63.9885 912.098 76.8582C863.363 90.4993 819.371 111.012 771.704 126.325C724.037 141.639 669.79 151.714 618.856 142.642C537.751 128.202 479.311 68.2712 395.528 68.5463C305.966 68.8376 269.23 132.005 193.262 151.315C129.222 167.594 58.9933 145.247 0.426636 121.126C-27.5374 109.61 -56.2083 97.2578 -88.5778 94.5555C-121.034 91.8478 -152.437 99.3992 -180.519 109.987C-195.699 115.71 -209.724 122.404 -222.776 129.853C-274.722 159.471 -311.45 200.976 -345.728 240.594C-357.303 253.976 -368.478 267.531 -379.26 281.242L-486.451 279.991C-486.451 279.991 -574.262 263.626 -492.145 426.839C-489.514 432.071 -486.821 437.287 -484.088 442.497C-486.828 447.708 -489.514 452.924 -492.145 458.156C-515.751 505.066 -533.278 524.036 -543 530.93C-529.022 530.989 -497.571 541.885 -444.517 601.255L-380.65 601.972C-369.444 616.293 -357.806 630.446 -345.728 644.406C-311.45 684.024 -274.722 725.524 -222.776 755.147C-209.716 762.591 -195.699 769.284 -180.519 775.013C-152.437 785.601 -121.042 793.152 -88.5778 790.445C-56.2083 787.742 -27.5374 775.39 0.426636 763.874C58.9933 739.753 129.214 717.406 193.262 733.685C269.23 752.995 305.974 816.162 395.528 816.454C479.311 816.729 537.751 756.798 618.856 742.358C669.798 733.286 724.037 743.362 771.704 758.675C819.371 773.988 863.363 794.506 912.098 808.142C958.084 821.012 1011.85 827.204 1056.57 812.365C1084.4 803.131 1105.62 786.825 1129.91 773.707C1219.29 725.47 1342.61 723.366 1456.26 724.914C1519.46 725.772 1558.36 722.083 1597.71 688.452C1620.29 669.147 1636.84 646.801 1653.57 624.75L1726.92 625.57C1757.9 584.431 1774.02 579.669 1781.03 581.939C1778.01 575.44 1773.8 561.939 1769.48 535.865C1766.98 520.751 1763.92 505.627 1760.33 490.546Z" fill="#173C33"/>
</g>
<defs>
<filter id="filter0_d_18_1679" x="-611" y="0" width="2541" height="893" filterUnits="userSpaceOnUse" color-interpolation-filters="sRGB">
<feFlood flood-opacity="0" result="BackgroundImageFix"/>
<feColorMatrix in="SourceAlpha" type="matrix" values="0 0 0 0 0 0 0 0 0 0 0 0 0 0 0 0 0 0 127 0" result="hardAlpha"/>
<feOffset dy="4"/>
<feGaussianBlur stdDeviation="34"/>
<feComposite in2="hardAlpha" operator="out"/>
<feColorMatrix type="matrix" values="0 0 0 0 0.0509804 0 0 0 0 0.196078 0 0 0 0 0.160784 0 0 0 1 0"/>
<feBlend mode="normal" in2="BackgroundImageFix" result="effect1_dropShadow_18_1679"/>
<feBlend mode="normal" in="SourceGraphic" in2="effect1_dropShadow_18_1679" result="shape"/>
</filter>
</defs>
</svg>
